# xmcd
#
# Track frame offsets:
#	150
#	12343
#	29766
#	45696
#	56316
#	61789
#	73012
#	84453
#	97374
#	108315
#	118898
#	130636
#	138586
#
# Disc length: 2040 seconds
#
# Revision: 1
# Processed by: cddbd v1.5.2PL0 Copyright (c) Steve Scherf et al.
# Submitted via: audiograbber 1.83.01
#
DISCID=b907f60d
DTITLE=Conjunto Bluegrass Porto-alegrense - Conjunto Bluegrass Porto-alegrense
DYEAR=2014
DGENRE=Bluegrass
TTITLE0=Don't Let Your Sweet Love Die
TTITLE1=Jerusalem Ridge
TTITLE2=New River Train
TTITLE3=I'm Blue, I'm Lonesome
TTITLE4=I May Not Be Able
TTITLE5=Whiskey Before Breakfast
TTITLE6=Blackberry Blossom
TTITLE7=Wicked Path Of Sin
TTITLE8=Lonesome Fiddle Blues
TTITLE9=Think Of What You Done
TTITLE10=Soldier's Joy
TTITLE11=Fiddle Gossip
TTITLE12=Old Home Place
EXTD=
EXTT0=
EXTT1=
EXTT2=
EXTT3=
EXTT4=
EXTT5=
EXTT6=
EXTT7=
EXTT8=
EXTT9=
EXTT10=
EXTT11=
EXTT12=
PLAYORDER=
